# xmcd
#
# Track frame offsets: 
#        183
#        36258
#        72858
#        85833
#        112308
#        155508
#        190608
#        209328
#
# Disc length: 3067 seconds
#
# Revision: 7
# Processed by: cddbd v1.5.2PL0 Copyright (c) Steve Scherf et al.
# Submitted via: ExactAudioCopy v0.99pb5
#
DISCID=6c0bf908
DTITLE=Guarneri Quartet - Beethoven - String Quartets Op. 18 Nos. 3 and 
DTITLE=4
DYEAR=1987
DGENRE=Chamber Music
TTITLE0=01. String Quartet in D major Op. 18 No. 3 - 1. Allegro
TTITLE1=02. String Quartet in D major Op. 18 No. 3 - 2. Andante con mo
TTITLE1=to
TTITLE2=03. String Quartet in D major Op. 18 No. 3 - 3. Allegro
TTITLE3=04. String Quartet in D major Op. 18 No. 3 - 4. Presto
TTITLE4=05. String Quartet in C minor Op. 18 No. 4 - 1. Allegro ma non
TTITLE4=tanto
TTITLE5=06. String Quartet in C minor Op. 18 No. 4 - 2. Scherzo, andan
TTITLE5=te scherzoso
TTITLE6=07. String Quartet in C minor Op. 18 No. 4 - 3. Menuetto, alle
TTITLE6=gretto
TTITLE7=08. String Quartet in C minor Op. 18 No. 4 - 4. Allegro
EXTD=YEAR: 1987
EXTT0=
EXTT1=
EXTT2=
EXTT3=
EXTT4=
EXTT5=
EXTT6=
EXTT7=
PLAYORDER=
